<?xml version="1.0" encoding="utf-8"?>
<!-- Generator: Adobe Illustrator 25.0.1, SVG Export Plug-In . SVG Version: 6.00 Build 0)  -->
<svg version="1.1" id="Capa_1" xmlns="http://www.w3.org/2000/svg" xmlns:xlink="http://www.w3.org/1999/xlink" x="0px" y="0px"
	 viewBox="0 0 512 512" style="enable-background:new 0 0 512 512;" xml:space="preserve">
<style type="text/css">
	.st0{fill:#3DA9FC;}
</style>
<g transform="translate(0.000000,512.000000) scale(0.100000,-0.100000)">
	<path class="st0" d="M2445,5113c-254-53-328-96-562-327l-163-159l-492,236c-271,131-501,237-511,237c-33,0-61-21-174-133
		c-70-69-117-124-124-145c-21-62-3-79,415-398l388-297l-243-243l-244-242l-191,18c-105,10-204,15-220,12c-33-6-285-246-311-296
		c-19-36-10-86,20-114c14-13,76-36,165-60c79-22,145-41,147-43s-5-40-15-84c-50-214-69-472-51-675c6-69,14-154,17-190
		c5-61,3-70-36-154C111,1736,19,1386,4,1085c-23-464,167-826,517-984C879-61,1356-25,1938,209c57,23,126,53,154,67
		c41,21,61,25,102,21c334-29,382-30,531-19c312,25,560,91,831,223c135,66,305,169,332,201c7,9,16,32,19,52c5,31,1,40-30,71
		c-50,50-74,47-191-26c-123-75-274-151-385-194c-142-54-369-113-478-125c-131-14-439-7-568,14c-603,95-1114,422-1445,926
		c-120,183-243,470-280,655l-13,60l75,135c95,173,215,364,221,353c3-4,17-51,31-103c30-113,54-140,119-140c40,0,46,5,189,148
		l148,148v54c0,30-7,127-15,215l-16,159l244,244l244,244l289-379c159-208,300-388,313-400c17-16,36-23,64-23c38,0,47,7,169,127
		c121,120,128,129,128,166c0,31-51,146-230,519c-126,263-230,482-230,486s46,53,103,108c111,110,216,183,473,326l146,82l61-13
		c246-50,562-200,790-374c88-67,315-283,365-349c57-74,171-258,226-368c291-574,300-1242,25-1831c-33-69-59-138-59-153
		c0-19,12-40,35-63c31-31,40-35,72-30c52,9,70,30,124,142c99,206,166,423,206,670c22,138,24,450,4,613c-11,85-12,121-4,140
		c6,15,32,73,57,130c212,480,284,961,196,1307c-118,463-506,718-1051,691c-354-17-734-131-1158-349l-154-78l7,32
		c31,157,26,324-12,362c-11,11-39,23-63,28C2604,5119,2481,5121,2445,5113z M2545,4863c-10-80-41-178-78-243c-20-35-102-127-229-256
		c-193-197-198-203-198-243c0-34,44-134,230-521c127-263,230-483,230-488c0-4-15-23-33-40l-33-32l-21,22c-11,13-143,184-293,381
		c-150,196-284,366-298,377c-15,13-40,20-65,20c-40,0-46-6-353-312c-172-171-318-325-325-341c-10-25-9-68,5-230l17-200l-42-43
		c-24-24-46-41-49-36c-4,4-37,120-75,257c-37,138-74,260-83,273c-16,24-35,31-346,116c-109,30-201,58-204,61s13,24,36,47l41,42
		l210-18c209-18,210-18,238,2c15,11,166,159,336,329c287,289,307,312,307,345c0,20-9,46-21,61c-11,15-189,155-395,313
		c-206,157-377,291-380,296c-4,6,9,25,27,44l34,33l489-234c354-171,498-235,524-235c33,0,51,15,226,189c105,104,216,204,246,223
		c95,59,201,94,294,97l38,1L2545,4863z M4255,4910c194-28,337-93,449-203c207-205,266-548,170-987c-22-99-112-389-134-428
		c-4-9-17,16-34,65c-38,107-132,299-201,408c-267,424-640,737-1098,921l-128,51l133,46C3738,4897,4033,4941,4255,4910z M692,3062
		c3-4,16-44,28-90l23-83l-85-127c-47-70-106-162-132-204c-27-43-51-78-54-78s-2,66,1,148c6,149,23,280,52,409l17,71l71-20
		C653,3078,688,3066,692,3062z M435,1710c174-433,468-795,859-1055c138-92,326-189,455-235c57-20,87-36,79-40c-7-4-80-30-163-58
		c-521-175-931-160-1195,43c-93,71-156,157-203,277c-48,119-60,198-60,383c-1,193,18,316,77,521c35,123,95,288,102,282
		C387,1826,410,1773,435,1710z"/>
	<path class="st0" d="M1740,2660c-14-14-20-33-20-68c0-63,21-92,66-92h34v-173c0-217,0-217,105-217s105,0,105,217v173h29h29l4-142
		c3-162,15-195,78-230c29-16,52-19,137-16c90,3,104,6,126,26l24,23l17-26c15-23,22-25,90-25c53,0,77,4,86,15c10,12,14,12,26,0
		c11-11,69-14,302-14c266-1,291,1,324,19c35,19,36,19,53-1c26-28,148-28,167,0c14,20,14,20,26,0c10-16,24-19,81-19c48,0,74,5,84,15
		c13,13,17,13,28-1c9-11,30-14,88-12c65,3,77,6,86,24l11,22l29-24c27-22,39-24,136-24c94,0,110,3,139,22c62,43,70,72,70,263
		c0,157-2,173-23,209c-36,63-74,78-192,74c-86-3-105-6-132-26c-18-13-33-19-33-13c0,5-7,17-16,25c-12,12-37,16-112,16
		c-53,0-102-4-108-8c-18-12-32-44-39-94c-4-27-11-48-15-48c-5,0-11,22-15,50c-4,27-16,61-27,75c-20,26-22,26-122,22
		c-119-6-91-6-246,0c-120,4-127,3-161-20l-35-24l-17,24c-16,20-27,23-82,23c-52,0-69-4-85-20l-20-20l-39,20c-36,18-58,20-246,19
		c-184-1-209-3-225-19c-17-17-18-17-33,0c-14,16-39,18-266,19C1772,2680,1759,2679,1740,2660z M2080,2590c0-39-1-40-34-40
		c-69,0-66,8-66-206v-194h-55h-55v194c0,214,3,206-66,206c-33,0-34,1-34,40v40h155h155V2590z M2252,2438l3-193l28-3
		c54-6,57,3,57,204v184h55h55v-194c0-107-4-206-10-220c-5-14-24-35-42-46c-28-18-46-21-116-18c-80,3-85,4-113,36l-29,32v205v205h55
		h55L2252,2438z M2781,2601c27-27,29-35,29-101c0-39-5-81-11-92c-8-14-8-23,0-31c7-7,11-54,11-119v-108h-50h-50v81
		c0,99-9,119-55,119h-35v-100v-100h-55h-55v240v240h121C2751,2630,2752,2630,2781,2601z M2980,2390v-240h-55h-55v240v240h55h55V2390
		z M3320,2590v-40h-71c-85,0-109-11-109-49s13-47,90-64c88-21,100-38,100-137c0-126-39-154-205-148l-90,3l-3,43l-3,42h83
		c94,0,108,7,108,56c0,39-11,48-82,63c-31,7-68,21-82,32c-24,19-26,27-26,100c0,76,2,82,29,110c29,29,31,29,145,29h116V2590z
		 M3569,2578c6-29,20-104,32-165c12-62,25-113,30-113c7,0,15,34,39,165c6,30,15,80,21,110l10,55h90h89v-241v-240l-52,3l-53,3l-3,168
		c-1,92-6,167-11,167c-8,0-26-77-64-270l-13-65l-51-3c-42-2-52,0-57,15c-5,19-66,310-66,318c0,3-4,5-10,5s-10-63-10-170v-170h-50
		h-50v240v240h84h85L3569,2578z M4221,2601l29-29v-180v-180l-35-31c-34-29-40-31-116-31c-85,0-130,15-149,49c-14,27-13,353,1,385
		c17,36,44,45,147,45C4188,2630,4193,2629,4221,2601z M3340,2474c0-21-3-25-17-19c-10,4-40,14-68,21c-76,21-76,22,8,23
		C3340,2500,3340,2500,3340,2474z M3152,2310c10,0,18-4,18-10s-32-10-75-10h-75v29v28l57-18C3108,2318,3141,2310,3152,2310z"/>
	<path class="st0" d="M2627,2543c-4-3-7-28-7-55c0-53,12-65,54-54c53,13,37,116-18,116C2644,2550,2630,2547,2627,2543z"/>
	<path class="st0" d="M4063,2543c-10-3-13-43-13-149c0-143,0-144,24-150c13-3,34-1,45,6c20,10,21,19,21,143c0,90-4,137-12,145
		C4116,2550,4085,2553,4063,2543z"/>
	<path class="st0" d="M1052,1873c-7-2-16-13-22-22c-7-13-100-483-100-505c0-38,161-53,193-18c10,10,17,28,17,39c0,61,34,72,44,14
		c11-68,17-70,195-70c126,0,162,3,171,14c10,13,14,12,27,0c10-10,36-15,84-15c56,0,72,4,86,19c16,19,17,19,55,0c33-17,55-19,171-17
		c123,3,133,4,141,24l9,21l35-23c34-23,40-24,248-23c225,0,243,4,245,47c0,11,4,8,10-8c6-13,15-28,22-32c20-13,202-9,215,4
		c8,8,12,66,12,195v183h30h30v-173c0-217,0-217,105-217s105,0,105,217v173h30h30v-178c0-159,2-181,18-195c15-14,44-16,169-16
		c159,0,182,5,184,47c0,11,4,8,10-8c6-13,15-28,22-32s91-7,187-7c188,0,210,5,210,55c0,62,34,74,44,15c9-60,26-71,110-71
		c78,0,96,9,96,49c0,14-20,129-45,255c-37,187-50,234-66,249c-28,22-204,25-234,3c-14-10-26-49-46-147l-27-134l-1,132
		c-1,158-5,163-109,163c-54,0-67-4-84-23l-21-23l-22,22l-23,23h-437l-438-1l-20-22l-20-22l-24,24c-22,22-29,23-116,19
		c-50-3-98-5-104-5c-15,1-324,1-350,0c-10,0-67,2-128,4c-137,7-166,1-206-38c-28-28-32-30-41-15c-5,10-27,26-48,37
		c-33,17-59,20-160,20c-164,0-160,5-161-182l-1-143l-29,145c-37,182-35,180-168,179C1108,1879,1059,1876,1052,1873z M1299,1603
		c24-126,46-234,49-241c3-10-9-12-54-10l-59,3l-10,55l-10,55l-52,3c-57,3-49,13-69-88c-5-29-8-30-60-30c-30,0-54,4-54,10
		c0,5,11,67,24,137c14,71,32,169,41,218c9,50,18,96,20,103c3,8,32,12,98,12h93L1299,1603z M1681,1801c27-27,29-35,29-101
		c0-39-5-81-11-92c-8-14-8-23,0-31c7-7,11-54,11-119v-108h-50h-50v81c0,99-9,119-55,119h-35v-100v-100h-55h-55v240v240h121
		C1651,1830,1652,1830,1681,1801z M2060,1790v-40h-71c-111,0-109,3-109-154c0-146,5-160,57-154l28,3l3,88l3,87h54h55v-135v-135h-110
		c-119,0-155,10-184,52c-13,18-16,55-16,196v174l29,29c29,29,31,29,145,29h116V1790z M2420,1790v-39l-87-3l-88-3v-50v-50l78-3l77-3
		v-39v-40h-80h-81l3-57l3-58l93-3l92-3v-44v-45h-105c-182,0-185,4-185,280v200h140h140V1790z M2690,1703c24-71,46-132,51-137
		c5-6,9,48,9,127v137h55h55v-240v-241l-77,3l-76,3l-46,138c-26,76-50,135-54,131s-7-67-7-141v-133h-55h-55v240v240h79h79L2690,1703z
		 M3230,1790c0-39-1-40-34-40c-69,0-66,8-66-206v-194h-55h-55v194c0,214,3,206-66,206c-33,0-34,1-34,40v40h155h155V1790z M3400,1590
		v-240h-55h-55v240v240h55h55V1590z M3650,1703c24-71,46-132,51-137c5-6,9,48,9,127v137h55h55v-240v-241l-77,3l-76,3l-46,138
		c-26,76-50,135-54,131s-7-67-7-141v-133h-55h-55v240v240h79h79L3650,1703z M4199,1603c24-126,46-234,49-241c3-10-9-12-54-10l-59,3
		l-10,55l-10,55l-52,3c-57,3-49,13-69-88c-5-29-8-30-60-30c-30,0-54,4-54,10c0,5,11,67,24,137c14,71,32,169,41,218
		c9,50,18,96,20,103c3,8,32,12,98,12h93L4199,1603z M2090,1688c0-21-4-23-62-23c-35,0-71-4-80-9c-15-7-18-3-18,18c0,25,2,25,78,29
		c42,1,78,4,80,5C2089,1709,2090,1700,2090,1688z M2440,1684c0-23-1-24-16-10c-10,11-36,17-77,18l-62,2l70,6c39,4,73,7,78,8
		C2437,1709,2440,1698,2440,1684z M2440,1510v-30h-75c-60,0-75,3-75,15c0,11,13,15,53,15c31,0,61,6,73,15
		C2441,1544,2440,1545,2440,1510z"/>
	<path class="st0" d="M1148,1725c-8-13-28-121-28-152c0-20,5-23,35-23h35l-7,43C1170,1675,1154,1735,1148,1725z"/>
	<path class="st0" d="M1527,1743c-4-3-7-28-7-55c0-53,12-65,54-54c53,13,37,116-18,116C1544,1750,1530,1747,1527,1743z"/>
	<path class="st0" d="M4048,1725c-8-13-28-121-28-152c0-20,5-23,35-23h35l-7,43C4070,1675,4054,1735,4048,1725z"/>
	<path class="st0" d="M4164,1200c-51-21-77-86-53-133c37-72,139-75,175-6C4329,1146,4251,1235,4164,1200z"/>
</g>
</svg>
